<svg width="513" height="513" viewBox="0 0 513 513" fill="none" xmlns="http://www.w3.org/2000/svg">
<g clip-path="url(#clip0)">
<path d="M256.014 0.133912C114.629 0.163912 0.0381992 114.804 0.0681992 256.189C0.0781992 305.146 14.1272 353.073 40.5472 394.289L0.718199 497.628C-1.4028 503.124 1.3332 509.299 6.8292 511.42C8.0582 511.894 9.3632 512.137 10.6802 512.135C11.9022 512.141 13.1152 511.932 14.2642 511.516L120.931 473.436C240.943 548.181 398.825 511.484 473.569 391.471C548.313 271.458 511.617 113.577 391.604 38.8329C350.922 13.4949 303.943 0.0869122 256.014 0.133912Z" fill="#4CAF50"/>
<path d="M378.062 299.889C378.062 299.889 351.929 287.089 335.566 278.556C317.049 269.02 295.289 286.876 285.049 297.031C269.112 290.909 254.556 281.669 242.233 269.852C230.414 257.531 221.174 242.975 215.054 227.036C225.209 216.775 243.022 195.036 233.529 176.519C225.102 160.135 212.196 134.023 212.196 134.002C210.385 130.408 206.706 128.139 202.681 128.135H181.348C150.28 133.501 127.691 160.609 128.015 192.135C128.015 225.628 168.1 289.97 195.13 317.02C222.16 344.07 286.501 384.135 320.015 384.135C351.541 384.459 378.649 361.869 384.015 330.802V309.469C384.018 305.401 381.71 301.686 378.062 299.889Z" fill="#FAFAFA"/>
</g>
<defs>
<clipPath id="clip0">
<rect width="512.303" height="512.303" fill="white"/>
</clipPath>
</defs>
</svg>
