<svg width="145" height="26" viewBox="0 0 145 26" fill="none" xmlns="http://www.w3.org/2000/svg">
<path d="M0.728 14.748V12.928C0.728 11.42 1.17867 10.1373 2.08 9.08C2.98133 8.00533 4.082 7.468 5.382 7.468C6.14467 7.468 6.838 7.65867 7.462 8.04C8.086 8.42133 8.56267 8.88933 8.892 9.444V8.846C8.892 8.482 9.06533 8.18733 9.412 7.962C9.75867 7.73667 10.2007 7.624 10.738 7.624C11.2753 7.624 11.726 7.73667 12.09 7.962C12.4713 8.18733 12.662 8.482 12.662 8.846V24.394C12.662 24.7233 12.4713 25.0093 12.09 25.252C11.7087 25.512 11.2407 25.642 10.686 25.642C10.1313 25.642 9.646 25.512 9.23 25.252C8.83133 24.992 8.632 24.706 8.632 24.394V18.18C8.372 18.752 7.92133 19.246 7.28 19.662C6.656 20.0607 5.98 20.26 5.252 20.26C4.056 20.26 2.99867 19.7053 2.08 18.596C1.17867 17.4867 0.728 16.204 0.728 14.748ZM4.758 14.748C4.758 15.268 4.94867 15.736 5.33 16.152C5.72867 16.5507 6.17933 16.75 6.682 16.75C7.202 16.75 7.65267 16.542 8.034 16.126C8.43267 15.71 8.632 15.3633 8.632 15.086V12.928C8.632 12.3387 8.44133 11.8707 8.06 11.524C7.67867 11.16 7.23667 10.978 6.734 10.978C6.19667 10.978 5.72867 11.1773 5.33 11.576C4.94867 11.9747 4.758 12.4253 4.758 12.928V14.748ZM14.9033 14.8V8.872C14.9033 8.56 15.1026 8.274 15.5013 8.014C15.8999 7.754 16.3766 7.624 16.9313 7.624C17.4513 7.624 17.9106 7.754 18.3093 8.014C18.7253 8.274 18.9333 8.56 18.9333 8.872V14.8C18.9333 15.3027 19.1239 15.7533 19.5053 16.152C19.8866 16.5507 20.3286 16.75 20.8313 16.75C21.3339 16.75 21.7673 16.5507 22.1313 16.152C22.5126 15.7533 22.7033 15.3027 22.7033 14.8V8.846C22.7033 8.51667 22.9026 8.23067 23.3013 7.988C23.7173 7.74533 24.1939 7.624 24.7313 7.624C25.3033 7.624 25.7799 7.74533 26.1613 7.988C26.5426 8.23067 26.7333 8.51667 26.7333 8.846V14.8C26.7333 16.256 26.1439 17.53 24.9653 18.622C23.8039 19.714 22.4259 20.26 20.8313 20.26C19.2193 20.26 17.8239 19.714 16.6453 18.622C15.4839 17.53 14.9033 16.256 14.9033 14.8ZM28.4793 14.748V12.85C28.4793 11.3767 29.06 10.1113 30.2213 9.054C31.4 7.99667 32.8127 7.468 34.4593 7.468C36.002 7.468 37.3193 7.936 38.4113 8.872C39.5033 9.79067 40.0493 10.9693 40.0493 12.408C40.0493 12.9627 39.98 13.4133 39.8413 13.76C39.7027 14.1067 39.4947 14.3493 39.2173 14.488C38.94 14.6267 38.68 14.722 38.4373 14.774C38.212 14.8087 37.9087 14.826 37.5273 14.826H32.5093V14.982C32.5093 15.6233 32.752 16.1433 33.2373 16.542C33.7227 16.9233 34.364 17.114 35.1613 17.114C35.768 17.114 36.4007 16.958 37.0593 16.646C37.7353 16.3167 38.186 16.152 38.4113 16.152C38.8447 16.152 39.2 16.36 39.4773 16.776C39.7547 17.1747 39.8933 17.556 39.8933 17.92C39.8933 18.4573 39.4253 18.986 38.4893 19.506C37.5707 20.0087 36.4267 20.26 35.0573 20.26C33.116 20.26 31.53 19.7573 30.2993 18.752C29.086 17.7293 28.4793 16.3947 28.4793 14.748ZM32.5093 12.564H35.7333C36.0973 12.564 36.2793 12.356 36.2793 11.94C36.2793 11.4547 36.0887 11.0733 35.7073 10.796C35.3433 10.5187 34.9013 10.38 34.3813 10.38C33.8787 10.38 33.4367 10.5187 33.0553 10.796C32.6913 11.0733 32.5093 11.4547 32.5093 11.94V12.564ZM41.4038 14.748V12.98C41.4038 11.3333 41.8891 10.0073 42.8598 9.002C43.8478 7.97933 45.3124 7.468 47.2538 7.468C48.5018 7.468 49.5418 7.68467 50.3738 8.118C51.2231 8.534 51.6478 9.03667 51.6478 9.626C51.6478 10.0593 51.4918 10.5013 51.1798 10.952C50.8851 11.3853 50.5211 11.602 50.0878 11.602C49.9491 11.602 49.6284 11.498 49.1258 11.29C48.6404 11.082 48.1291 10.978 47.5918 10.978C46.1531 10.978 45.4338 11.6453 45.4338 12.98V14.748C45.4338 16.0827 46.1618 16.75 47.6178 16.75C48.1378 16.75 48.6318 16.6373 49.0998 16.412C49.5851 16.1693 49.9144 16.048 50.0878 16.048C50.5904 16.048 50.9978 16.256 51.3098 16.672C51.6391 17.088 51.8038 17.5213 51.8038 17.972C51.8038 18.5787 51.3618 19.116 50.4778 19.584C49.5938 20.0347 48.5364 20.26 47.3058 20.26C45.3298 20.26 43.8478 19.7573 42.8598 18.752C41.8891 17.7467 41.4038 16.412 41.4038 14.748ZM53.3737 18.752V1.774C53.3737 1.41 53.5557 1.11533 53.9197 0.89C54.3011 0.664666 54.7864 0.551999 55.3757 0.551999C55.9304 0.551999 56.4071 0.664666 56.8057 0.89C57.2044 1.11533 57.4037 1.41 57.4037 1.774V9.444C57.6637 8.88933 58.0711 8.42133 58.6257 8.04C59.1977 7.65867 59.8651 7.468 60.6277 7.468C61.8237 7.468 62.8551 8.00533 63.7217 9.08C64.6057 10.1547 65.0477 11.4373 65.0477 12.928V18.752C65.0477 19.1507 64.8484 19.4627 64.4497 19.688C64.0511 19.896 63.5744 20 63.0197 20C62.4997 20 62.0317 19.8873 61.6157 19.662C61.2171 19.4367 61.0177 19.1333 61.0177 18.752V12.928C61.0177 12.4253 60.8271 11.9747 60.4457 11.576C60.0817 11.1773 59.6484 10.978 59.1457 10.978C58.6951 10.978 58.2877 11.16 57.9237 11.524C57.5771 11.8707 57.4037 12.3387 57.4037 12.928V18.752C57.4037 19.064 57.1957 19.35 56.7797 19.61C56.3811 19.87 55.9131 20 55.3757 20C54.8037 20 54.3271 19.8787 53.9457 19.636C53.5644 19.376 53.3737 19.0813 53.3737 18.752ZM67.1318 14.8V8.872C67.1318 8.56 67.3311 8.274 67.7298 8.014C68.1285 7.754 68.6051 7.624 69.1598 7.624C69.6798 7.624 70.1391 7.754 70.5378 8.014C70.9538 8.274 71.1618 8.56 71.1618 8.872V14.8C71.1618 15.3027 71.3525 15.7533 71.7338 16.152C72.1151 16.5507 72.5571 16.75 73.0598 16.75C73.5625 16.75 73.9958 16.5507 74.3598 16.152C74.7411 15.7533 74.9318 15.3027 74.9318 14.8V8.846C74.9318 8.51667 75.1311 8.23067 75.5298 7.988C75.9458 7.74533 76.4225 7.624 76.9598 7.624C77.5318 7.624 78.0085 7.74533 78.3898 7.988C78.7711 8.23067 78.9618 8.51667 78.9618 8.846V14.8C78.9618 16.256 78.3725 17.53 77.1938 18.622C76.0325 19.714 74.6545 20.26 73.0598 20.26C71.4478 20.26 70.0525 19.714 68.8738 18.622C67.7125 17.53 67.1318 16.256 67.1318 14.8ZM80.4739 16.802C80.4739 15.3633 80.9939 14.3493 82.0339 13.76C83.0912 13.1707 84.5992 12.876 86.5579 12.876H87.4939V12.616C87.4939 12.096 87.3379 11.6453 87.0259 11.264C86.7139 10.8827 86.2199 10.692 85.5439 10.692C84.7119 10.692 84.0272 10.8393 83.4899 11.134C82.9525 11.4113 82.6232 11.55 82.5019 11.55C82.0859 11.55 81.7565 11.3507 81.5139 10.952C81.2712 10.536 81.1499 10.068 81.1499 9.548C81.1499 8.976 81.6265 8.49067 82.5799 8.092C83.5505 7.676 84.5559 7.468 85.5959 7.468C87.5892 7.468 89.0712 7.95333 90.0419 8.924C91.0299 9.89467 91.5239 11.108 91.5239 12.564V18.752C91.5239 19.0987 91.3332 19.3933 90.9519 19.636C90.5879 19.8787 90.1199 20 89.5479 20C89.0452 20 88.6205 19.8787 88.2739 19.636C87.9272 19.3933 87.7539 19.0987 87.7539 18.752V18.18C86.5579 19.5667 85.2405 20.26 83.8019 20.26C82.8485 20.26 82.0512 19.9653 81.4099 19.376C80.7859 18.7867 80.4739 17.9287 80.4739 16.802ZM84.5299 16.23C84.5299 16.958 84.8679 17.322 85.5439 17.322C85.9772 17.322 86.4105 17.0793 86.8439 16.594C87.2772 16.1087 87.4939 15.554 87.4939 14.93V14.826H87.3899C86.8179 14.826 86.3412 14.852 85.9599 14.904C85.5959 14.956 85.2665 15.0947 84.9719 15.32C84.6772 15.528 84.5299 15.8313 84.5299 16.23ZM94.0036 18.752V1.774C94.0036 1.41 94.1856 1.11533 94.5496 0.89C94.9309 0.664666 95.4163 0.551999 96.0056 0.551999C96.5776 0.551999 97.0543 0.664666 97.4356 0.89C97.8343 1.11533 98.0336 1.41 98.0336 1.774V18.752C98.0336 19.064 97.8343 19.35 97.4356 19.61C97.0369 19.87 96.5603 20 96.0056 20C95.4336 20 94.9569 19.8787 94.5756 19.636C94.1943 19.376 94.0036 19.0813 94.0036 18.752ZM101.094 4.686C100.678 4.30467 100.47 3.86267 100.47 3.36C100.47 2.85733 100.678 2.424 101.094 2.06C101.51 1.696 102.012 1.514 102.602 1.514C103.174 1.514 103.668 1.696 104.084 2.06C104.5 2.424 104.708 2.85733 104.708 3.36C104.708 3.86267 104.5 4.30467 104.084 4.686C103.668 5.05 103.174 5.232 102.602 5.232C102.012 5.232 101.51 5.05 101.094 4.686ZM100.6 18.752V8.846C100.6 8.482 100.782 8.18733 101.146 7.962C101.527 7.73667 102.012 7.624 102.602 7.624C103.174 7.624 103.65 7.73667 104.032 7.962C104.43 8.18733 104.63 8.482 104.63 8.846V18.752C104.63 19.064 104.43 19.35 104.032 19.61C103.633 19.87 103.156 20 102.602 20C102.03 20 101.553 19.8787 101.172 19.636C100.79 19.376 100.6 19.0813 100.6 18.752ZM106.947 18.752V8.846C106.947 8.482 107.129 8.18733 107.493 7.962C107.875 7.73667 108.36 7.624 108.949 7.624C109.435 7.624 109.851 7.73667 110.197 7.962C110.544 8.18733 110.717 8.482 110.717 8.846V9.444C110.995 8.88933 111.437 8.42133 112.043 8.04C112.667 7.65867 113.387 7.468 114.201 7.468C115.397 7.468 116.429 8.00533 117.295 9.08C118.179 10.1547 118.621 11.4373 118.621 12.928V18.752C118.621 19.1507 118.422 19.4627 118.023 19.688C117.625 19.896 117.148 20 116.593 20C116.073 20 115.605 19.8873 115.189 19.662C114.791 19.4367 114.591 19.1333 114.591 18.752V12.928C114.591 12.4253 114.401 11.9747 114.019 11.576C113.655 11.1773 113.222 10.978 112.719 10.978C112.269 10.978 111.861 11.16 111.497 11.524C111.151 11.8707 110.977 12.3387 110.977 12.928V18.752C110.977 19.064 110.769 19.35 110.353 19.61C109.955 19.87 109.487 20 108.949 20C108.377 20 107.901 19.8787 107.519 19.636C107.138 19.376 106.947 19.0813 106.947 18.752ZM119.978 21.872C119.978 20.728 120.559 19.8267 121.72 19.168C121.096 18.804 120.784 18.2667 120.784 17.556C120.784 16.7933 121.226 16.0913 122.11 15.45C120.983 14.618 120.42 13.5173 120.42 12.148V11.758C120.42 10.4927 120.905 9.46133 121.876 8.664C122.864 7.86667 124.155 7.468 125.75 7.468C126.842 7.468 127.821 7.676 128.688 8.092C128.983 7.38133 129.243 6.90467 129.468 6.662C129.693 6.402 129.927 6.272 130.17 6.272C130.621 6.272 130.985 6.41067 131.262 6.688C131.557 6.948 131.704 7.208 131.704 7.468C131.704 7.74533 131.565 8.00533 131.288 8.248L130.768 8.664C130.508 8.872 130.309 9.04533 130.17 9.184C130.829 9.89467 131.158 10.7527 131.158 11.758V12.148C131.158 13.396 130.647 14.436 129.624 15.268C128.619 16.0827 127.327 16.49 125.75 16.49C125.178 16.49 124.658 16.438 124.19 16.334C124.121 16.4553 124.086 16.568 124.086 16.672C124.086 16.9147 124.346 17.0967 124.866 17.218C125.403 17.3393 126.045 17.452 126.79 17.556C127.553 17.66 128.307 17.816 129.052 18.024C129.815 18.2147 130.456 18.596 130.976 19.168C131.513 19.74 131.782 20.4853 131.782 21.404C131.782 22.8253 131.21 23.8827 130.066 24.576C128.922 25.2867 127.535 25.642 125.906 25.642C124.277 25.642 122.881 25.304 121.72 24.628C120.559 23.952 119.978 23.0333 119.978 21.872ZM123.774 21.456C123.774 21.9587 123.973 22.3573 124.372 22.652C124.788 22.9467 125.273 23.094 125.828 23.094C126.383 23.094 126.859 22.9467 127.258 22.652C127.674 22.3573 127.882 21.976 127.882 21.508C127.882 21.2133 127.804 20.9707 127.648 20.78C127.492 20.5893 127.249 20.4333 126.92 20.312C126.608 20.208 126.296 20.1213 125.984 20.052C125.689 20 125.299 19.948 124.814 19.896C124.121 20.26 123.774 20.78 123.774 21.456ZM124.32 12.122C124.32 12.7113 124.45 13.1967 124.71 13.578C124.97 13.9593 125.334 14.15 125.802 14.15C126.253 14.15 126.608 13.968 126.868 13.604C127.128 13.2227 127.258 12.7373 127.258 12.148V11.758C127.258 11.2033 127.128 10.744 126.868 10.38C126.608 9.99867 126.244 9.808 125.776 9.808C125.325 9.808 124.97 9.99867 124.71 10.38C124.45 10.744 124.32 11.2033 124.32 11.758V12.122ZM132.682 14.748V12.928C132.682 11.4547 133.263 10.1807 134.424 9.106C135.586 8.014 136.972 7.468 138.584 7.468C140.179 7.468 141.566 8.00533 142.744 9.08C143.923 10.1547 144.512 11.4373 144.512 12.928V14.748C144.512 16.204 143.914 17.4867 142.718 18.596C141.54 19.7053 140.162 20.26 138.584 20.26C137.007 20.26 135.629 19.7053 134.45 18.596C133.272 17.4867 132.682 16.204 132.682 14.748ZM136.712 14.748C136.712 15.268 136.894 15.736 137.258 16.152C137.622 16.5507 138.064 16.75 138.584 16.75C139.104 16.75 139.546 16.5507 139.91 16.152C140.292 15.736 140.482 15.268 140.482 14.748V12.928C140.482 12.4253 140.292 11.9747 139.91 11.576C139.529 11.1773 139.087 10.978 138.584 10.978C138.082 10.978 137.64 11.1773 137.258 11.576C136.894 11.9747 136.712 12.4253 136.712 12.928V14.748Z" fill="white"/>
</svg>
